<svg xmlns="http://www.w3.org/2000/svg" viewBox="0 0 512 512" role="img" aria-label="知食分子">
  <rect width="512" height="512" rx="116" fill="#7D9B76"/>
  <circle cx="256" cy="256" r="164" fill="#FBF9F4"/>
  <path d="M174 252c0-64 45-116 102-116 50 0 89 40 89 92 0 76-62 126-142 126-32 0-58-10-76-29 18 8 37 11 57 9 76-7 124-54 124-112 0-29-21-53-52-53-40 0-70 38-70 83 0 20 6 38 17 52-30-3-49-22-49-52Z" fill="#7D9B76"/>
  <path d="M282 120c19-33 52-50 91-48-6 38-29 65-68 77-11-10-18-19-23-29Z" fill="#E8B44F"/>
  <path d="M191 369c39 33 91 49 150 39-30 26-72 39-116 31-39-7-70-28-90-57 18 3 37-1 56-13Z" fill="#D9746A" opacity=".88"/>
</svg>
